<svg width="226" height="17" viewBox="0 0 226 17" fill="none" xmlns="http://www.w3.org/2000/svg">
<path d="M14.3008 3.96875C14.3008 4.54687 14.2734 5.18359 14.2188 5.87891C14.1641 6.57422 14.0742 7.29297 13.9492 8.03516C13.8242 8.77734 13.6602 9.53125 13.457 10.2969C13.2617 11.0547 13.0156 11.7852 12.7188 12.4883C12.4219 13.1914 12.0742 13.8516 11.6758 14.4688C11.2852 15.0781 10.832 15.6133 10.3164 16.0742C9.80859 16.5273 9.23828 16.8828 8.60547 17.1406C7.97266 17.4062 7.26953 17.5391 6.49609 17.5391C5.58984 17.5391 4.80078 17.3906 4.12891 17.0938C3.46484 16.8047 2.89453 16.4141 2.41797 15.9219C1.94141 15.4219 1.55078 14.8438 1.24609 14.1875C0.941406 13.5234 0.703125 12.8242 0.53125 12.0898C0.359375 11.3477 0.238281 10.5938 0.167969 9.82812C0.105469 9.05469 0.0742188 8.3125 0.0742188 7.60156C0.0742188 6.50781 0.128906 5.41797 0.238281 4.33203C0.347656 3.23828 0.503906 2.14844 0.707031 1.0625L6.19141 1.27344C5.98047 2.5 5.79688 3.73438 5.64062 4.97656C5.49219 6.21094 5.41797 7.45312 5.41797 8.70312C5.41797 8.83594 5.42188 9.03516 5.42969 9.30078C5.44531 9.55859 5.46875 9.85156 5.5 10.1797C5.53125 10.5 5.57422 10.832 5.62891 11.1758C5.69141 11.5117 5.77344 11.8203 5.875 12.1016C5.97656 12.3828 6.09766 12.6133 6.23828 12.793C6.38672 12.9727 6.55859 13.0625 6.75391 13.0625C6.98047 13.0625 7.18359 12.957 7.36328 12.7461C7.54297 12.5273 7.69922 12.2383 7.83203 11.8789C7.97266 11.5195 8.09375 11.1055 8.19531 10.6367C8.29688 10.168 8.38281 9.67969 8.45312 9.17188C8.52344 8.66406 8.57812 8.15625 8.61719 7.64844C8.66406 7.14062 8.69922 6.66797 8.72266 6.23047C8.75391 5.79297 8.77344 5.40625 8.78125 5.07031C8.78906 4.73437 8.79297 4.48438 8.79297 4.32031C8.79297 3.71094 8.78125 3.10547 8.75781 2.50391C8.74219 1.89453 8.71484 1.28906 8.67578 0.6875H14.1602C14.2539 1.76562 14.3008 2.85937 14.3008 3.96875ZM31.1758 0.195312L30.332 16.0859L24.1914 16.6484L20.9102 8.14062L20.3945 16.8125H15.1211L15.543 0.195312L21.4023 -0.0859375L25.457 8.35156L25.6445 0.382812L31.1758 0.195312ZM38.4648 0.5L37.1758 16.4609L32.2305 16.7188V0.828125L38.4648 0.5ZM50.3828 0.101562C50.3359 0.835938 50.293 1.5625 50.2539 2.28125C50.2148 3 50.1641 3.72656 50.1016 4.46094L45.1328 4.71875V6.19531H49.4453L49.2109 9.82812L45.1094 9.94531L45.1328 16.8828L39.2031 17L39.5781 0.101562H50.3828ZM64.2109 15.9922L58.3984 16.7422L57.6953 14.0938H55.0234L54.4375 16.7422L48.4609 16.1562L53.125 0.546875L59.6406 0.21875L64.2109 15.9922ZM57.2734 10.5078L56.3828 6.42969L55.5156 10.5078H57.2734ZM75.7656 0.523438L75.1094 5.46875C74.8828 5.40625 74.6562 5.36328 74.4297 5.33984C74.2031 5.31641 73.9766 5.30469 73.75 5.30469C73.1719 5.30469 72.6211 5.38281 72.0977 5.53906C71.5742 5.6875 71.1094 5.91797 70.7031 6.23047C70.3047 6.54297 69.9844 6.93359 69.7422 7.40234C69.5078 7.87109 69.3906 8.42188 69.3906 9.05469C69.3906 9.46094 69.4531 9.8125 69.5781 10.1094C69.7109 10.4062 69.8945 10.6523 70.1289 10.8477C70.3633 11.043 70.6406 11.1875 70.9609 11.2812C71.2812 11.375 71.6328 11.4219 72.0156 11.4219C72.3047 11.4219 72.6055 11.3906 72.918 11.3281C73.2305 11.2656 73.5391 11.1836 73.8438 11.082C74.1484 10.9805 74.4453 10.8633 74.7344 10.7305C75.0234 10.5977 75.2891 10.4609 75.5312 10.3203L75.0625 15.8281C74.7578 15.9844 74.4258 16.125 74.0664 16.25C73.7148 16.3672 73.3516 16.4727 72.9766 16.5664C72.6016 16.6523 72.2266 16.7188 71.8516 16.7656C71.4766 16.8125 71.1172 16.8359 70.7734 16.8359C69.7812 16.8359 68.8555 16.6523 67.9961 16.2852C67.1367 15.918 66.3906 15.4141 65.7578 14.7734C65.125 14.1328 64.625 13.3789 64.2578 12.5117C63.8984 11.6367 63.7188 10.6953 63.7188 9.6875C63.7188 8.35156 63.9102 7.09375 64.293 5.91406C64.6758 4.72656 65.2383 3.6875 65.9805 2.79688C66.7227 1.90625 67.6406 1.20312 68.7344 0.6875C69.8359 0.171875 71.1016 -0.0859375 72.5312 -0.0859375C73.0703 -0.0859375 73.6211 -0.0429687 74.1836 0.0429688C74.7539 0.128906 75.2812 0.289062 75.7656 0.523438ZM82.832 0.5L81.543 16.4609L76.5977 16.7188V0.828125L82.832 0.5ZM95.6523 10.7656C95.6523 11.8359 95.4648 12.7734 95.0898 13.5781C94.7227 14.375 94.2148 15.0391 93.5664 15.5703C92.9258 16.1016 92.1719 16.5 91.3047 16.7656C90.4453 17.0312 89.5195 17.1641 88.5273 17.1641C88.1445 17.1641 87.7227 17.1133 87.2617 17.0117C86.8086 16.9102 86.3477 16.7852 85.8789 16.6367C85.4102 16.4805 84.957 16.3164 84.5195 16.1445C84.0898 15.9648 83.707 15.7969 83.3711 15.6406L83.8867 10.8125C84.5508 11.2109 85.2852 11.5156 86.0898 11.7266C86.9023 11.9297 87.6992 12.0312 88.4805 12.0312C88.6289 12.0312 88.8086 12.0273 89.0195 12.0195C89.2305 12.0039 89.4297 11.9688 89.6172 11.9141C89.8125 11.8516 89.9766 11.7617 90.1094 11.6445C90.2422 11.5273 90.3086 11.3594 90.3086 11.1406C90.3086 10.9922 90.2617 10.8672 90.168 10.7656C90.0742 10.6562 89.9531 10.5703 89.8047 10.5078C89.6562 10.4375 89.4883 10.3867 89.3008 10.3555C89.1133 10.3164 88.9297 10.2891 88.75 10.2734C88.5703 10.2578 88.4023 10.25 88.2461 10.25C88.0898 10.25 87.9648 10.25 87.8711 10.25C87.1992 10.25 86.5859 10.1328 86.0312 9.89844C85.4844 9.66406 85.0117 9.33984 84.6133 8.92578C84.2227 8.50391 83.918 8.00781 83.6992 7.4375C83.4805 6.85938 83.3711 6.23438 83.3711 5.5625C83.3711 4.64062 83.5547 3.81641 83.9219 3.08984C84.2969 2.35547 84.793 1.73437 85.4102 1.22656C86.0352 0.710938 86.75 0.316406 87.5547 0.0429688C88.3594 -0.230469 89.1914 -0.367188 90.0508 -0.367188C90.4336 -0.367188 90.8281 -0.351563 91.2344 -0.320312C91.6406 -0.296875 92.043 -0.25 92.4414 -0.179688C92.8477 -0.109375 93.2422 -0.0195312 93.625 0.0898438C94.0078 0.199219 94.3711 0.335938 94.7148 0.5L94.2695 5.25781C93.7383 5.07812 93.1797 4.92969 92.5938 4.8125C92.0156 4.6875 91.4492 4.625 90.8945 4.625C90.793 4.625 90.6602 4.62891 90.4961 4.63672C90.3398 4.63672 90.1719 4.64844 89.9922 4.67188C89.8203 4.6875 89.6445 4.71484 89.4648 4.75391C89.2852 4.79297 89.125 4.84766 88.9844 4.91797C88.8438 4.98047 88.7305 5.06641 88.6445 5.17578C88.5586 5.28516 88.5195 5.41406 88.5273 5.5625C88.5352 5.73438 88.5977 5.875 88.7148 5.98438C88.8398 6.08594 88.9961 6.16797 89.1836 6.23047C89.3789 6.28516 89.5898 6.32422 89.8164 6.34766C90.0508 6.37109 90.2812 6.38672 90.5078 6.39453C90.7344 6.39453 90.9453 6.39453 91.1406 6.39453C91.3359 6.38672 91.4961 6.39062 91.6211 6.40625C92.2461 6.44531 92.8086 6.57812 93.3086 6.80469C93.8086 7.03125 94.2305 7.33203 94.5742 7.70703C94.9258 8.08203 95.1914 8.53125 95.3711 9.05469C95.5586 9.57031 95.6523 10.1406 95.6523 10.7656ZM110.992 15.9922L105.18 16.7422L104.477 14.0938H101.805L101.219 16.7422L95.2422 16.1562L99.9062 0.546875L106.422 0.21875L110.992 15.9922ZM104.055 10.5078L103.164 6.42969L102.297 10.5078H104.055Z" fill="#2049B4"/>
<path d="M128.312 0.242188L128.195 5.21094L124.703 5.35156L123.812 16.4609L118.867 16.7188L118.891 5.60938L115.398 5.79688L115.539 0.265625L128.312 0.242188ZM142.973 8.72656C142.973 9.4375 142.891 10.125 142.727 10.7891C142.562 11.4453 142.324 12.0625 142.012 12.6406C141.707 13.2188 141.332 13.75 140.887 14.2344C140.449 14.7109 139.953 15.1211 139.398 15.4648C138.852 15.8086 138.254 16.0781 137.605 16.2734C136.957 16.4609 136.27 16.5547 135.543 16.5547C134.84 16.5547 134.168 16.4648 133.527 16.2852C132.895 16.1055 132.301 15.8555 131.746 15.5352C131.191 15.207 130.688 14.8164 130.234 14.3633C129.789 13.9023 129.406 13.3945 129.086 12.8398C128.773 12.2773 128.527 11.6758 128.348 11.0352C128.176 10.3945 128.09 9.72656 128.09 9.03125C128.09 8.35156 128.172 7.6875 128.336 7.03906C128.5 6.38281 128.734 5.76562 129.039 5.1875C129.352 4.60938 129.727 4.07812 130.164 3.59375C130.602 3.10938 131.09 2.69141 131.629 2.33984C132.176 1.98828 132.766 1.71484 133.398 1.51953C134.031 1.32422 134.699 1.22656 135.402 1.22656C136.535 1.22656 137.566 1.40234 138.496 1.75391C139.434 2.10547 140.23 2.60938 140.887 3.26562C141.551 3.91406 142.062 4.70313 142.422 5.63281C142.789 6.55469 142.973 7.58594 142.973 8.72656ZM137.77 9.03125C137.77 8.69531 137.719 8.37109 137.617 8.05859C137.523 7.73828 137.383 7.45703 137.195 7.21484C137.008 6.96484 136.773 6.76562 136.492 6.61719C136.219 6.46094 135.902 6.38281 135.543 6.38281C135.176 6.38281 134.848 6.44922 134.559 6.58203C134.27 6.71484 134.02 6.89844 133.809 7.13281C133.605 7.35938 133.449 7.62891 133.34 7.94141C133.23 8.24609 133.176 8.57031 133.176 8.91406C133.176 9.24219 133.223 9.57031 133.316 9.89844C133.41 10.2266 133.551 10.5234 133.738 10.7891C133.926 11.0547 134.156 11.2695 134.43 11.4336C134.711 11.5977 135.035 11.6797 135.402 11.6797C135.77 11.6797 136.098 11.6094 136.387 11.4688C136.684 11.3203 136.934 11.125 137.137 10.8828C137.34 10.6328 137.496 10.3477 137.605 10.0273C137.715 9.70703 137.77 9.375 137.77 9.03125ZM161.758 7.69531C161.758 8.78906 161.617 9.77734 161.336 10.6602C161.055 11.5352 160.66 12.3164 160.152 13.0039C159.652 13.6836 159.055 14.2695 158.359 14.7617C157.664 15.2539 156.902 15.6602 156.074 15.9805C155.246 16.293 154.363 16.5273 153.426 16.6836C152.496 16.832 151.539 16.9062 150.555 16.9062C150.188 16.9062 149.828 16.8984 149.477 16.8828C149.125 16.8594 148.766 16.8281 148.398 16.7891L148.727 1.0625C149.586 0.789063 150.469 0.597656 151.375 0.488281C152.289 0.371094 153.195 0.3125 154.094 0.3125C155.211 0.3125 156.238 0.480469 157.176 0.816406C158.113 1.15234 158.922 1.63672 159.602 2.26953C160.281 2.90234 160.809 3.67578 161.184 4.58984C161.566 5.50391 161.758 6.53906 161.758 7.69531ZM156.953 8.44531C156.961 8.02344 156.914 7.61719 156.812 7.22656C156.719 6.83594 156.559 6.49219 156.332 6.19531C156.113 5.89062 155.832 5.64844 155.488 5.46875C155.145 5.28125 154.734 5.17969 154.258 5.16406L153.789 12.4297C154.258 12.3594 154.684 12.207 155.066 11.9727C155.449 11.7305 155.777 11.4375 156.051 11.0938C156.332 10.7422 156.547 10.3555 156.695 9.93359C156.852 9.50391 156.938 9.0625 156.953 8.60938V8.44531ZM176.957 8.72656C176.957 9.4375 176.875 10.125 176.711 10.7891C176.547 11.4453 176.309 12.0625 175.996 12.6406C175.691 13.2188 175.316 13.75 174.871 14.2344C174.434 14.7109 173.938 15.1211 173.383 15.4648C172.836 15.8086 172.238 16.0781 171.59 16.2734C170.941 16.4609 170.254 16.5547 169.527 16.5547C168.824 16.5547 168.152 16.4648 167.512 16.2852C166.879 16.1055 166.285 15.8555 165.73 15.5352C165.176 15.207 164.672 14.8164 164.219 14.3633C163.773 13.9023 163.391 13.3945 163.07 12.8398C162.758 12.2773 162.512 11.6758 162.332 11.0352C162.16 10.3945 162.074 9.72656 162.074 9.03125C162.074 8.35156 162.156 7.6875 162.32 7.03906C162.484 6.38281 162.719 5.76562 163.023 5.1875C163.336 4.60938 163.711 4.07812 164.148 3.59375C164.586 3.10938 165.074 2.69141 165.613 2.33984C166.16 1.98828 166.75 1.71484 167.383 1.51953C168.016 1.32422 168.684 1.22656 169.387 1.22656C170.52 1.22656 171.551 1.40234 172.48 1.75391C173.418 2.10547 174.215 2.60938 174.871 3.26562C175.535 3.91406 176.047 4.70313 176.406 5.63281C176.773 6.55469 176.957 7.58594 176.957 8.72656ZM171.754 9.03125C171.754 8.69531 171.703 8.37109 171.602 8.05859C171.508 7.73828 171.367 7.45703 171.18 7.21484C170.992 6.96484 170.758 6.76562 170.477 6.61719C170.203 6.46094 169.887 6.38281 169.527 6.38281C169.16 6.38281 168.832 6.44922 168.543 6.58203C168.254 6.71484 168.004 6.89844 167.793 7.13281C167.59 7.35938 167.434 7.62891 167.324 7.94141C167.215 8.24609 167.16 8.57031 167.16 8.91406C167.16 9.24219 167.207 9.57031 167.301 9.89844C167.395 10.2266 167.535 10.5234 167.723 10.7891C167.91 11.0547 168.141 11.2695 168.414 11.4336C168.695 11.5977 169.02 11.6797 169.387 11.6797C169.754 11.6797 170.082 11.6094 170.371 11.4688C170.668 11.3203 170.918 11.125 171.121 10.8828C171.324 10.6328 171.48 10.3477 171.59 10.0273C171.699 9.70703 171.754 9.375 171.754 9.03125ZM192.766 10.3203L192.273 15.5234L182.406 16.2969C182.453 13.5703 182.504 10.8594 182.559 8.16406C182.621 5.46875 182.695 2.75781 182.781 0.03125H188.875C188.695 1.74219 188.523 3.45312 188.359 5.16406C188.195 6.86719 188.078 8.58594 188.008 10.3203C188.375 10.3359 188.738 10.3438 189.098 10.3438C189.457 10.3438 189.82 10.3438 190.188 10.3438C190.625 10.3438 191.055 10.3398 191.477 10.332C191.898 10.3242 192.328 10.3203 192.766 10.3203ZM199.645 0.5L198.355 16.4609L193.41 16.7188V0.828125L199.645 0.5ZM212.465 10.7656C212.465 11.8359 212.277 12.7734 211.902 13.5781C211.535 14.375 211.027 15.0391 210.379 15.5703C209.738 16.1016 208.984 16.5 208.117 16.7656C207.258 17.0312 206.332 17.1641 205.34 17.1641C204.957 17.1641 204.535 17.1133 204.074 17.0117C203.621 16.9102 203.16 16.7852 202.691 16.6367C202.223 16.4805 201.77 16.3164 201.332 16.1445C200.902 15.9648 200.52 15.7969 200.184 15.6406L200.699 10.8125C201.363 11.2109 202.098 11.5156 202.902 11.7266C203.715 11.9297 204.512 12.0312 205.293 12.0312C205.441 12.0312 205.621 12.0273 205.832 12.0195C206.043 12.0039 206.242 11.9688 206.43 11.9141C206.625 11.8516 206.789 11.7617 206.922 11.6445C207.055 11.5273 207.121 11.3594 207.121 11.1406C207.121 10.9922 207.074 10.8672 206.98 10.7656C206.887 10.6562 206.766 10.5703 206.617 10.5078C206.469 10.4375 206.301 10.3867 206.113 10.3555C205.926 10.3164 205.742 10.2891 205.562 10.2734C205.383 10.2578 205.215 10.25 205.059 10.25C204.902 10.25 204.777 10.25 204.684 10.25C204.012 10.25 203.398 10.1328 202.844 9.89844C202.297 9.66406 201.824 9.33984 201.426 8.92578C201.035 8.50391 200.73 8.00781 200.512 7.4375C200.293 6.85938 200.184 6.23438 200.184 5.5625C200.184 4.64062 200.367 3.81641 200.734 3.08984C201.109 2.35547 201.605 1.73437 202.223 1.22656C202.848 0.710938 203.562 0.316406 204.367 0.0429688C205.172 -0.230469 206.004 -0.367188 206.863 -0.367188C207.246 -0.367188 207.641 -0.351563 208.047 -0.320312C208.453 -0.296875 208.855 -0.25 209.254 -0.179688C209.66 -0.109375 210.055 -0.0195312 210.438 0.0898438C210.82 0.199219 211.184 0.335938 211.527 0.5L211.082 5.25781C210.551 5.07812 209.992 4.92969 209.406 4.8125C208.828 4.6875 208.262 4.625 207.707 4.625C207.605 4.625 207.473 4.62891 207.309 4.63672C207.152 4.63672 206.984 4.64844 206.805 4.67188C206.633 4.6875 206.457 4.71484 206.277 4.75391C206.098 4.79297 205.938 4.84766 205.797 4.91797C205.656 4.98047 205.543 5.06641 205.457 5.17578C205.371 5.28516 205.332 5.41406 205.34 5.5625C205.348 5.73438 205.41 5.875 205.527 5.98438C205.652 6.08594 205.809 6.16797 205.996 6.23047C206.191 6.28516 206.402 6.32422 206.629 6.34766C206.863 6.37109 207.094 6.38672 207.32 6.39453C207.547 6.39453 207.758 6.39453 207.953 6.39453C208.148 6.38672 208.309 6.39062 208.434 6.40625C209.059 6.44531 209.621 6.57812 210.121 6.80469C210.621 7.03125 211.043 7.33203 211.387 7.70703C211.738 8.08203 212.004 8.53125 212.184 9.05469C212.371 9.57031 212.465 10.1406 212.465 10.7656ZM225.32 0.242188L225.203 5.21094L221.711 5.35156L220.82 16.4609L215.875 16.7188L215.898 5.60938L212.406 5.79688L212.547 0.265625L225.32 0.242188Z" fill="white"/>
</svg>
