<svg width="200" height="61" viewBox="0 0 200 61" fill="none" xmlns="http://www.w3.org/2000/svg">
<g clip-path="url(#clip0_26_17)">
<path d="M39.9512 5.45312C39.9512 6.32031 39.9102 7.27539 39.8281 8.31836C39.7461 9.36133 39.6113 10.4395 39.4238 11.5527C39.2363 12.666 38.9902 13.7969 38.6855 14.9453C38.3926 16.082 38.0234 17.1777 37.5781 18.2324C37.1328 19.2871 36.6113 20.2773 36.0137 21.2031C35.4277 22.1172 34.748 22.9199 33.9746 23.6113C33.2129 24.291 32.3574 24.8242 31.4082 25.2109C30.459 25.6094 29.4043 25.8086 28.2441 25.8086C26.8848 25.8086 25.7012 25.5859 24.6934 25.1406C23.6973 24.707 22.8418 24.1211 22.127 23.3828C21.4121 22.6328 20.8262 21.7656 20.3691 20.7812C19.9121 19.7852 19.5547 18.7363 19.2969 17.6348C19.0391 16.5215 18.8574 15.3906 18.752 14.2422C18.6582 13.082 18.6113 11.9688 18.6113 10.9023C18.6113 9.26172 18.6934 7.62695 18.8574 5.99805C19.0215 4.35742 19.2559 2.72266 19.5605 1.09375L27.7871 1.41016C27.4707 3.25 27.1953 5.10156 26.9609 6.96484C26.7383 8.81641 26.627 10.6797 26.627 12.5547C26.627 12.7539 26.6328 13.0527 26.6445 13.4512C26.668 13.8379 26.7031 14.2773 26.75 14.7695C26.7969 15.25 26.8613 15.748 26.9434 16.2637C27.0371 16.7676 27.1602 17.2305 27.3125 17.6523C27.4648 18.0742 27.6465 18.4199 27.8574 18.6895C28.0801 18.959 28.3379 19.0938 28.6309 19.0938C28.9707 19.0938 29.2754 18.9355 29.5449 18.6191C29.8145 18.291 30.0488 17.8574 30.248 17.3184C30.459 16.7793 30.6406 16.1582 30.793 15.4551C30.9453 14.752 31.0742 14.0195 31.1797 13.2578C31.2852 12.4961 31.3672 11.7344 31.4258 10.9727C31.4961 10.2109 31.5488 9.50195 31.584 8.8457C31.6309 8.18945 31.6602 7.60937 31.6719 7.10547C31.6836 6.60156 31.6895 6.22656 31.6895 5.98047C31.6895 5.06641 31.6719 4.1582 31.6367 3.25586C31.6133 2.3418 31.5723 1.43359 31.5137 0.53125H39.7402C39.8809 2.14844 39.9512 3.78906 39.9512 5.45312ZM65.2637 -0.207031L63.998 23.6289L54.7871 24.4727L49.8652 11.7109L49.0918 24.7188H41.1816L41.8145 -0.207031L50.6035 -0.628906L56.6855 12.0273L56.9668 0.0742188L65.2637 -0.207031ZM76.1973 0.25L74.2637 24.1914L66.8457 24.5781V0.742188L76.1973 0.25ZM94.0742 -0.347656C94.0039 0.753906 93.9395 1.84375 93.8809 2.92188C93.8223 4 93.7461 5.08984 93.6523 6.19141L86.1992 6.57812V8.79297H92.668L92.3164 14.2422L86.1641 14.418L86.1992 24.8242L77.3047 25L77.8672 -0.347656H94.0742ZM114.816 23.4883L106.098 24.6133L105.043 20.6406H101.035L100.156 24.6133L91.1914 23.7344L98.1875 0.320312L107.961 -0.171875L114.816 23.4883ZM104.41 15.2617L103.074 9.14453L101.773 15.2617H104.41ZM132.148 0.285156L131.164 7.70312C130.824 7.60937 130.484 7.54492 130.145 7.50977C129.805 7.47461 129.465 7.45703 129.125 7.45703C128.258 7.45703 127.432 7.57422 126.646 7.80859C125.861 8.03125 125.164 8.37695 124.555 8.8457C123.957 9.31445 123.477 9.90039 123.113 10.6035C122.762 11.3066 122.586 12.1328 122.586 13.082C122.586 13.6914 122.68 14.2188 122.867 14.6641C123.066 15.1094 123.342 15.4785 123.693 15.7715C124.045 16.0645 124.461 16.2812 124.941 16.4219C125.422 16.5625 125.949 16.6328 126.523 16.6328C126.957 16.6328 127.408 16.5859 127.877 16.4922C128.346 16.3984 128.809 16.2754 129.266 16.123C129.723 15.9707 130.168 15.7949 130.602 15.5957C131.035 15.3965 131.434 15.1914 131.797 14.9805L131.094 23.2422C130.637 23.4766 130.139 23.6875 129.6 23.875C129.072 24.0508 128.527 24.209 127.965 24.3496C127.402 24.4785 126.84 24.5781 126.277 24.6484C125.715 24.7188 125.176 24.7539 124.66 24.7539C123.172 24.7539 121.783 24.4785 120.494 23.9277C119.205 23.377 118.086 22.6211 117.137 21.6602C116.188 20.6992 115.438 19.5684 114.887 18.2676C114.348 16.9551 114.078 15.543 114.078 14.0312C114.078 12.0273 114.365 10.1406 114.939 8.37109C115.514 6.58984 116.357 5.03125 117.471 3.69531C118.584 2.35938 119.961 1.30469 121.602 0.53125C123.254 -0.242188 125.152 -0.628906 127.297 -0.628906C128.105 -0.628906 128.932 -0.564453 129.775 -0.435547C130.631 -0.306641 131.422 -0.0664062 132.148 0.285156ZM142.748 0.25L140.814 24.1914L133.396 24.5781V0.742188L142.748 0.25ZM161.979 15.6484C161.979 17.2539 161.697 18.6602 161.135 19.8672C160.584 21.0625 159.822 22.0586 158.85 22.8555C157.889 23.6523 156.758 24.25 155.457 24.6484C154.168 25.0469 152.779 25.2461 151.291 25.2461C150.717 25.2461 150.084 25.1699 149.393 25.0176C148.713 24.8652 148.021 24.6777 147.318 24.4551C146.615 24.2207 145.936 23.9746 145.279 23.7168C144.635 23.4473 144.061 23.1953 143.557 22.9609L144.33 15.7188C145.326 16.3164 146.428 16.7734 147.635 17.0898C148.854 17.3945 150.049 17.5469 151.221 17.5469C151.443 17.5469 151.713 17.541 152.029 17.5293C152.346 17.5059 152.645 17.4531 152.926 17.3711C153.219 17.2773 153.465 17.1426 153.664 16.9668C153.863 16.791 153.963 16.5391 153.963 16.2109C153.963 15.9883 153.893 15.8008 153.752 15.6484C153.611 15.4844 153.43 15.3555 153.207 15.2617C152.984 15.1562 152.732 15.0801 152.451 15.0332C152.17 14.9746 151.895 14.9336 151.625 14.9102C151.355 14.8867 151.104 14.875 150.869 14.875C150.635 14.875 150.447 14.875 150.307 14.875C149.299 14.875 148.379 14.6992 147.547 14.3477C146.727 13.9961 146.018 13.5098 145.42 12.8887C144.834 12.2559 144.377 11.5117 144.049 10.6562C143.721 9.78906 143.557 8.85156 143.557 7.84375C143.557 6.46094 143.832 5.22461 144.383 4.13477C144.945 3.0332 145.689 2.10156 146.615 1.33984C147.553 0.566406 148.625 -0.0253906 149.832 -0.435547C151.039 -0.845703 152.287 -1.05078 153.576 -1.05078C154.15 -1.05078 154.742 -1.02734 155.352 -0.980469C155.961 -0.945312 156.564 -0.875 157.162 -0.769531C157.771 -0.664062 158.363 -0.529297 158.938 -0.365234C159.512 -0.201172 160.057 0.00390625 160.572 0.25L159.904 7.38672C159.107 7.11719 158.27 6.89453 157.391 6.71875C156.523 6.53125 155.674 6.4375 154.842 6.4375C154.689 6.4375 154.49 6.44336 154.244 6.45508C154.01 6.45508 153.758 6.47266 153.488 6.50781C153.23 6.53125 152.967 6.57227 152.697 6.63086C152.428 6.68945 152.188 6.77148 151.977 6.87695C151.766 6.9707 151.596 7.09961 151.467 7.26367C151.338 7.42773 151.279 7.62109 151.291 7.84375C151.303 8.10156 151.396 8.3125 151.572 8.47656C151.76 8.62891 151.994 8.75195 152.275 8.8457C152.568 8.92773 152.885 8.98633 153.225 9.02148C153.576 9.05664 153.922 9.08008 154.262 9.0918C154.602 9.0918 154.918 9.0918 155.211 9.0918C155.504 9.08008 155.744 9.08594 155.932 9.10938C156.869 9.16797 157.713 9.36719 158.463 9.70703C159.213 10.0469 159.846 10.498 160.361 11.0605C160.889 11.623 161.287 12.2969 161.557 13.082C161.838 13.8555 161.979 14.7109 161.979 15.6484ZM184.988 23.4883L176.27 24.6133L175.215 20.6406H171.207L170.328 24.6133L161.363 23.7344L168.359 0.320312L178.133 -0.171875L184.988 23.4883ZM174.582 15.2617L173.246 9.14453L171.945 15.2617H174.582Z" fill="#2049B4"/>
<path d="M30.6406 30.0703L30.4453 38.3516L24.625 38.5859L23.1406 57.1016L14.8984 57.5312L14.9375 39.0156L9.11719 39.3281L9.35156 30.1094L30.6406 30.0703ZM55.0742 44.2109C55.0742 45.3958 54.9375 46.5417 54.6641 47.6484C54.3906 48.7422 53.9935 49.7708 53.4727 50.7344C52.9648 51.6979 52.3398 52.5833 51.5977 53.3906C50.8685 54.1849 50.0417 54.8685 49.1172 55.4414C48.2057 56.0143 47.2096 56.4635 46.1289 56.7891C45.0482 57.1016 43.9023 57.2578 42.6914 57.2578C41.5195 57.2578 40.3997 57.1081 39.332 56.8086C38.2773 56.5091 37.2878 56.0924 36.3633 55.5586C35.4388 55.0117 34.599 54.3607 33.8438 53.6055C33.1016 52.8372 32.4635 51.9909 31.9297 51.0664C31.4089 50.1289 30.9987 49.1263 30.6992 48.0586C30.4128 46.9909 30.2695 45.8776 30.2695 44.7188C30.2695 43.5859 30.4062 42.4792 30.6797 41.3984C30.9531 40.3047 31.3438 39.276 31.8516 38.3125C32.3724 37.349 32.9974 36.4635 33.7266 35.6562C34.4557 34.849 35.2695 34.1523 36.168 33.5664C37.0794 32.9805 38.0625 32.5247 39.1172 32.1992C40.1719 31.8737 41.2852 31.7109 42.457 31.7109C44.3451 31.7109 46.0638 32.0039 47.6133 32.5898C49.1758 33.1758 50.5039 34.0156 51.5977 35.1094C52.7044 36.1901 53.5573 37.5052 54.1562 39.0547C54.7682 40.5911 55.0742 42.3099 55.0742 44.2109ZM46.4023 44.7188C46.4023 44.1589 46.3177 43.6185 46.1484 43.0977C45.9922 42.5638 45.7578 42.0951 45.4453 41.6914C45.1328 41.2747 44.7422 40.9427 44.2734 40.6953C43.8177 40.4349 43.2904 40.3047 42.6914 40.3047C42.0794 40.3047 41.5326 40.4154 41.0508 40.6367C40.569 40.8581 40.1523 41.1641 39.8008 41.5547C39.4622 41.9323 39.2018 42.3815 39.0195 42.9023C38.8372 43.4102 38.7461 43.9505 38.7461 44.5234C38.7461 45.0703 38.8242 45.6172 38.9805 46.1641C39.1367 46.7109 39.3711 47.2057 39.6836 47.6484C39.9961 48.0911 40.3802 48.4492 40.8359 48.7227C41.3047 48.9961 41.8451 49.1328 42.457 49.1328C43.069 49.1328 43.6159 49.0156 44.0977 48.7812C44.5924 48.5339 45.0091 48.2083 45.3477 47.8047C45.6862 47.388 45.9466 46.9128 46.1289 46.3789C46.3112 45.8451 46.4023 45.2917 46.4023 44.7188ZM86.3828 42.4922C86.3828 44.3151 86.1484 45.9622 85.6797 47.4336C85.2109 48.8919 84.5534 50.194 83.707 51.3398C82.8737 52.4727 81.8776 53.4492 80.7188 54.2695C79.5599 55.0898 78.2904 55.7669 76.9102 56.3008C75.5299 56.8216 74.0586 57.2122 72.4961 57.4727C70.9466 57.7201 69.3516 57.8438 67.7109 57.8438C67.099 57.8438 66.5 57.8307 65.9141 57.8047C65.3281 57.7656 64.7292 57.7135 64.1172 57.6484L64.6641 31.4375C66.0964 30.9818 67.5677 30.6628 69.0781 30.4805C70.6016 30.2852 72.112 30.1875 73.6094 30.1875C75.4714 30.1875 77.1836 30.4674 78.7461 31.0273C80.3086 31.5872 81.6562 32.3945 82.7891 33.4492C83.9219 34.5039 84.8008 35.793 85.4258 37.3164C86.0638 38.8398 86.3828 40.5651 86.3828 42.4922ZM78.375 43.7422C78.388 43.0391 78.3099 42.362 78.1406 41.7109C77.9844 41.0599 77.7174 40.487 77.3398 39.9922C76.9753 39.4844 76.5065 39.0807 75.9336 38.7812C75.3607 38.4688 74.6771 38.2995 73.8828 38.2734L73.1016 50.3828C73.8828 50.2656 74.5924 50.0117 75.2305 49.6211C75.8685 49.2174 76.4154 48.7292 76.8711 48.1562C77.3398 47.5703 77.6979 46.9258 77.9453 46.2227C78.2057 45.5065 78.349 44.7708 78.375 44.0156V43.7422ZM111.715 44.2109C111.715 45.3958 111.578 46.5417 111.305 47.6484C111.031 48.7422 110.634 49.7708 110.113 50.7344C109.605 51.6979 108.98 52.5833 108.238 53.3906C107.509 54.1849 106.682 54.8685 105.758 55.4414C104.846 56.0143 103.85 56.4635 102.77 56.7891C101.689 57.1016 100.543 57.2578 99.332 57.2578C98.1602 57.2578 97.0404 57.1081 95.9727 56.8086C94.918 56.5091 93.9284 56.0924 93.0039 55.5586C92.0794 55.0117 91.2396 54.3607 90.4844 53.6055C89.7422 52.8372 89.1042 51.9909 88.5703 51.0664C88.0495 50.1289 87.6393 49.1263 87.3398 48.0586C87.0534 46.9909 86.9102 45.8776 86.9102 44.7188C86.9102 43.5859 87.0469 42.4792 87.3203 41.3984C87.5938 40.3047 87.9844 39.276 88.4922 38.3125C89.013 37.349 89.638 36.4635 90.3672 35.6562C91.0964 34.849 91.9102 34.1523 92.8086 33.5664C93.7201 32.9805 94.7031 32.5247 95.7578 32.1992C96.8125 31.8737 97.9258 31.7109 99.0977 31.7109C100.986 31.7109 102.704 32.0039 104.254 32.5898C105.816 33.1758 107.145 34.0156 108.238 35.1094C109.345 36.1901 110.198 37.5052 110.797 39.0547C111.409 40.5911 111.715 42.3099 111.715 44.2109ZM103.043 44.7188C103.043 44.1589 102.958 43.6185 102.789 43.0977C102.633 42.5638 102.398 42.0951 102.086 41.6914C101.773 41.2747 101.383 40.9427 100.914 40.6953C100.458 40.4349 99.931 40.3047 99.332 40.3047C98.7201 40.3047 98.1732 40.4154 97.6914 40.6367C97.2096 40.8581 96.793 41.1641 96.4414 41.5547C96.1029 41.9323 95.8424 42.3815 95.6602 42.9023C95.4779 43.4102 95.3867 43.9505 95.3867 44.5234C95.3867 45.0703 95.4648 45.6172 95.6211 46.1641C95.7773 46.7109 96.0117 47.2057 96.3242 47.6484C96.6367 48.0911 97.0208 48.4492 97.4766 48.7227C97.9453 48.9961 98.4857 49.1328 99.0977 49.1328C99.7096 49.1328 100.257 49.0156 100.738 48.7812C101.233 48.5339 101.65 48.2083 101.988 47.8047C102.327 47.388 102.587 46.9128 102.77 46.3789C102.952 45.8451 103.043 45.2917 103.043 44.7188ZM138.062 46.8672L137.242 55.5391L120.797 56.8281C120.875 52.2839 120.96 47.7656 121.051 43.2734C121.155 38.7812 121.279 34.263 121.422 29.7188H131.578C131.279 32.5703 130.992 35.4219 130.719 38.2734C130.445 41.112 130.25 43.9766 130.133 46.8672C130.745 46.8932 131.35 46.9062 131.949 46.9062C132.548 46.9062 133.154 46.9062 133.766 46.9062C134.495 46.9062 135.211 46.8997 135.914 46.8867C136.617 46.8737 137.333 46.8672 138.062 46.8672ZM149.527 30.5L147.379 57.1016L139.137 57.5312V31.0469L149.527 30.5ZM170.895 47.6094C170.895 49.3932 170.582 50.9557 169.957 52.2969C169.345 53.625 168.499 54.7318 167.418 55.6172C166.35 56.5026 165.094 57.1667 163.648 57.6094C162.216 58.0521 160.673 58.2734 159.02 58.2734C158.382 58.2734 157.678 58.1888 156.91 58.0195C156.155 57.8503 155.387 57.6419 154.605 57.3945C153.824 57.1341 153.069 56.8607 152.34 56.5742C151.624 56.2747 150.986 55.9948 150.426 55.7344L151.285 47.6875C152.392 48.3516 153.616 48.8594 154.957 49.2109C156.311 49.5495 157.639 49.7188 158.941 49.7188C159.189 49.7188 159.488 49.7122 159.84 49.6992C160.191 49.6732 160.523 49.6146 160.836 49.5234C161.161 49.4193 161.435 49.2695 161.656 49.0742C161.878 48.8789 161.988 48.599 161.988 48.2344C161.988 47.987 161.91 47.7786 161.754 47.6094C161.598 47.4271 161.396 47.2839 161.148 47.1797C160.901 47.0625 160.621 46.9779 160.309 46.9258C159.996 46.8607 159.69 46.8151 159.391 46.7891C159.091 46.763 158.811 46.75 158.551 46.75C158.29 46.75 158.082 46.75 157.926 46.75C156.806 46.75 155.784 46.5547 154.859 46.1641C153.948 45.7734 153.16 45.2331 152.496 44.543C151.845 43.8398 151.337 43.013 150.973 42.0625C150.608 41.099 150.426 40.0573 150.426 38.9375C150.426 37.401 150.732 36.0273 151.344 34.8164C151.969 33.5924 152.796 32.5573 153.824 31.7109C154.866 30.8516 156.057 30.194 157.398 29.7383C158.74 29.2826 160.126 29.0547 161.559 29.0547C162.197 29.0547 162.854 29.0807 163.531 29.1328C164.208 29.1719 164.879 29.25 165.543 29.3672C166.22 29.4844 166.878 29.6341 167.516 29.8164C168.154 29.9987 168.759 30.2266 169.332 30.5L168.59 38.4297C167.704 38.1302 166.773 37.8828 165.797 37.6875C164.833 37.4792 163.889 37.375 162.965 37.375C162.796 37.375 162.574 37.3815 162.301 37.3945C162.04 37.3945 161.76 37.4141 161.461 37.4531C161.174 37.4792 160.882 37.5247 160.582 37.5898C160.283 37.6549 160.016 37.7461 159.781 37.8633C159.547 37.9674 159.358 38.1107 159.215 38.293C159.072 38.4753 159.007 38.6901 159.02 38.9375C159.033 39.224 159.137 39.4583 159.332 39.6406C159.54 39.8099 159.801 39.9466 160.113 40.0508C160.439 40.1419 160.79 40.207 161.168 40.2461C161.559 40.2852 161.943 40.3112 162.32 40.3242C162.698 40.3242 163.049 40.3242 163.375 40.3242C163.701 40.3112 163.967 40.3177 164.176 40.3438C165.217 40.4089 166.155 40.6302 166.988 41.0078C167.822 41.3854 168.525 41.8867 169.098 42.5117C169.684 43.1367 170.126 43.8854 170.426 44.7578C170.738 45.6172 170.895 46.5677 170.895 47.6094ZM192.32 30.0703L192.125 38.3516L186.305 38.5859L184.82 57.1016L176.578 57.5312L176.617 39.0156L170.797 39.3281L171.031 30.1094L192.32 30.0703Z" fill="white"/>
</g>
<defs>
<clipPath id="clip0_26_17">
<rect width="200" height="61" fill="white"/>
</clipPath>
</defs>
</svg>
